<svg id="Layer_1" enable-background="new 0 0 512 512" height="64" viewBox="0 0 512 512" width="64" xmlns="http://www.w3.org/2000/svg"><g><g><g><g><path d="m474.5 392.962h-437c-16.569 0-30-13.431-30-30v-282.417c0-16.569 13.431-30 30-30h437c16.569 0 30 13.431 30 30v282.417c0 16.568-13.431 30-30 30z" fill="#506d90"/><path d="m474.5 50.545h-30c16.569 0 30 13.431 30 30v282.417c0 16.569-13.431 30-30 30h30c16.569 0 30-13.431 30-30v-282.417c0-16.569-13.431-30-30-30z" fill="#455f7e"/><path d="m37.5 343.962v-259.417c0-2.209 1.791-4 4-4h429c2.209 0 4 1.791 4 4v259.417c0 2.209-1.791 4-4 4h-429c-2.209 0-4-1.791-4-4z" fill="#ecf5ff"/><path d="m37.5 343.962v-259.417c0-2.209 1.791-4 4-4h429c2.209 0 4 1.791 4 4v259.417c0 2.209-1.791 4-4 4h-429c-2.209 0-4-1.791-4-4z" fill="#ecf5ff"/><path d="m470.5 80.545h-30c2.209 0 4 1.791 4 4v259.417c0 2.209-1.791 4-4 4h30c2.209 0 4-1.791 4-4v-259.417c0-2.21-1.791-4-4-4z" fill="#dbeafd"/><path d="m305.543 504.5h-99.086l15-111.538h69.086z" fill="#455f7e"/><path d="m290.543 392.962h-30l15 111.538h30z" fill="#405972"/><path d="m320.895 456.277 10.563 38.085c1.414 5.097-2.42 10.138-7.709 10.138h-135.497c-5.289 0-9.123-5.041-7.709-10.138l10.563-38.085c.961-3.464 4.114-5.862 7.709-5.862h114.372c3.594 0 6.747 2.397 7.708 5.862z" fill="#506d90"/><path d="m331.458 494.362-10.563-38.085c-.961-3.464-4.114-5.862-7.709-5.862h-30c3.595 0 6.748 2.398 7.709 5.862l10.563 38.085c1.414 5.097-2.42 10.138-7.709 10.138h30c5.289 0 9.122-5.041 7.709-10.138z" fill="#455f7e"/></g><path d="m97.01 67.5h317.98v280.462h-317.98z" fill="#f7f6f7"/><path d="m384.99 67.5h30v280.462h-30z" fill="#e2d8ec"/><g><g><path d="m336.037 287.962h-160.074c-8.491 0-15.374-6.883-15.374-15.374v-159.714c0-8.491 6.883-15.374 15.374-15.374h160.073c8.491 0 15.374 6.883 15.374 15.374v159.713c.001 8.492-6.882 15.375-15.373 15.375z" fill="#dd8793"/></g><path d="m336.037 97.5h-30c8.491 0 15.374 6.883 15.374 15.374v159.713c0 8.491-6.883 15.374-15.374 15.374h30c8.491 0 15.374-6.883 15.374-15.374v-159.713c0-8.491-6.883-15.374-15.374-15.374z" fill="#d5707e"/><g fill="#fff"><path d="m229.794 172.254 90.349-15.36-.003-.004.89-21.91c.18-4.54-3.86-8.1-8.36-7.36l-76.04 12.96c-3.35.55-5.85 3.38-5.99 6.78l-1.013 24.887z"/><ellipse cx="299.443" cy="224.658" rx="17.954" ry="17.92"/><ellipse cx="208.917" cy="240.018" rx="17.954" ry="17.92"/></g></g><path d="m387.99 7.5h-278.98c-6.627 0-12 5.373-12 12v48h317.98l-15-48c0-6.627-5.373-12-12-12z" fill="#455f7e"/><path d="m402.99 7.5h-30c6.627 0 12 5.373 12 12v48h30v-48c0-6.627-5.373-12-12-12z" fill="#405972"/></g></g><path d="m127.01 30c-4.142 0-7.5 3.358-7.5 7.5s3.358 7.5 7.5 7.5 7.5-3.358 7.5-7.5-3.358-7.5-7.5-7.5zm60 0c-4.142 0-7.5 3.358-7.5 7.5s3.358 7.5 7.5 7.5 7.5-3.358 7.5-7.5-3.358-7.5-7.5-7.5zm-30 0c-4.142 0-7.5 3.358-7.5 7.5s3.358 7.5 7.5 7.5 7.5-3.358 7.5-7.5-3.358-7.5-7.5-7.5zm18.953 265.462h20.728c4.142 0 7.5-3.357 7.5-7.5s-3.358-7.5-7.5-7.5h-20.728c-4.342 0-7.875-3.532-7.875-7.874v-159.714c0-4.342 3.533-7.874 7.875-7.874h160.073c4.342 0 7.875 3.532 7.875 7.874v159.714c0 4.342-3.533 7.874-7.875 7.874h-104.345c-4.142 0-7.5 3.357-7.5 7.5s3.358 7.5 7.5 7.5h104.346c12.613 0 22.875-10.262 22.875-22.874v-159.714c0-12.612-10.261-22.874-22.875-22.874h-160.074c-12.613 0-22.875 10.262-22.875 22.874v159.714c.001 12.612 10.262 22.874 22.875 22.874zm298.537-252.422h-52.01v-23.54c0-10.752-8.748-19.5-19.5-19.5h-293.98c-10.752 0-19.5 8.748-19.5 19.5v23.54h-52.01c-20.678 0-37.5 16.822-37.5 37.5v282.42c0 20.678 16.822 37.5 37.5 37.5h175.383l-5.712 42.455h-8.357c-6.939 0-13.081 4.67-14.936 11.357l-10.563 38.085c-1.306 4.707-.358 9.637 2.598 13.524 2.957 3.889 7.454 6.118 12.338 6.118h135.497c4.885 0 9.382-2.229 12.338-6.118 2.956-3.888 3.903-8.817 2.598-13.523l-10.563-38.086c0-.001 0-.001 0-.001-1.855-6.687-7.997-11.356-14.936-11.356h-8.357l-5.712-42.455h175.384c20.678 0 37.5-16.822 37.5-37.5v-282.42c0-20.678-16.822-37.5-37.5-37.5zm-369.99-23.54c0-2.481 2.019-4.5 4.5-4.5h293.98c2.481 0 4.5 2.019 4.5 4.5v40.5h-302.98zm0 55.5h302.98v265.46h-302.98zm208.676 382.915c.224 0 .422.15.482.365l10.563 38.087c.095.239-.225.661-.482.633h-135.498c-.259.028-.578-.389-.482-.634l10.563-38.085c.06-.216.258-.366.482-.366zm-90.88-15 5.712-42.455h55.963l5.712 42.455zm274.694-79.955c0 12.406-10.093 22.5-22.5 22.5h-437c-12.407 0-22.5-10.094-22.5-22.5v-282.42c0-12.406 10.093-22.5 22.5-22.5h52.01v15h-48.01c-6.341 0-11.5 5.159-11.5 11.5v259.42c0 6.341 5.159 11.5 11.5 11.5h429c6.341 0 11.5-5.159 11.5-11.5v-186.438c0-4.143-3.358-7.5-7.5-7.5s-7.5 3.357-7.5 7.5v182.938h-44.51v-252.42h44.51v32.392c0 4.143 3.358 7.5 7.5 7.5s7.5-3.357 7.5-7.5v-35.892c0-6.341-5.159-11.5-11.5-11.5h-48.01v-15h52.01c12.407 0 22.5 10.094 22.5 22.5zm-407.49-274.92v252.42h-44.51v-252.42zm295.48 222.422h-257.98c-4.142 0-7.5 3.357-7.5 7.5s3.358 7.5 7.5 7.5h257.98c4.142 0 7.5-3.357 7.5-7.5s-3.358-7.5-7.5-7.5zm-85.547-111.224c-14.035 0-25.454 11.403-25.454 25.42s11.418 25.42 25.454 25.42c13.927 0 25.27-11.228 25.446-25.095 0-.007.002-.014.002-.021l3.633-89.675c.427-9.177-8.092-16.617-17.109-15.058l-76.013 12.948c-6.822 1.134-11.978 6.968-12.259 13.873l-2.855 70.236c-3.425-1.716-7.286-2.688-11.372-2.688-14.035 0-25.454 11.403-25.454 25.42s11.418 25.42 25.454 25.42c13.926 0 25.269-11.228 25.446-25.094 0-.007.002-.014.002-.021l2.506-61.665 75.403-12.82-1.462 36.086c-3.423-1.714-7.283-2.686-11.368-2.686zm0 35.84c-5.764 0-10.454-4.675-10.454-10.42s4.689-10.42 10.454-10.42 10.454 4.675 10.454 10.42-4.689 10.42-10.454 10.42zm-90.526 15.36c-5.764 0-10.454-4.675-10.454-10.42s4.689-10.42 10.454-10.42 10.454 4.675 10.454 10.42-4.689 10.42-10.454 10.42zm28.577-87.1.626-15.407 75.4-12.844-.625 15.432z"/></g></svg>